<?xml version="1.0" encoding="utf-8"?>
<!-- Generator: Adobe Illustrator 26.0.3, SVG Export Plug-In . SVG Version: 6.00 Build 0)  -->
<svg version="1.1" id="Layer_1" xmlns="http://www.w3.org/2000/svg" xmlns:xlink="http://www.w3.org/1999/xlink" x="0px" y="0px"
	 viewBox="0 0 100 100" style="enable-background:new 0 0 100 100;" xml:space="preserve">
<style type="text/css">
	.st0{fill:#B5B5B6;stroke:#000000;stroke-width:0.75;stroke-miterlimit:10;}
	.st1{fill:#F4D050;stroke:#000000;stroke-width:0.75;stroke-miterlimit:10;}
	.st2{fill:#5E5E5E;stroke:#000000;stroke-width:0.75;stroke-miterlimit:10;}
</style>
<path class="st0" d="M58.2,88.8c-5.9,0-11.9-0.5-17.7-3.1c-11.8-5.4-15.4-7.2-20-14.5c-0.3-0.5-3.4-5.5-4.2-10.9
	c-2.3-9.7,0.2-18.5,7.3-25.6c0.1-1.9,0.6-3.9,1.3-5.7c1.3-3.6,3.9-8.3,8.8-10.3c10.2-4.3,20.5-4.5,30.8-0.8
	c8.2,3,12.3,5.9,14.2,10.2c1.1,2.5,1.5,5.3,1.4,8.9c3,3.2,5.8,6.5,8.3,9.5l0.2,0.3l-2.3,1.9l-0.2-0.3c-2-2.3-4.1-4.8-6.3-7.3
	c-0.2,1.6-0.4,3.2-0.7,5.1L79,46.9c-0.4,2.9-0.9,6-2.2,8.8C73.2,63,65.5,68.6,56.5,70.4c-7.8,1.6-15.1-0.1-20.3-4.5
	c-4.1-3.6-5.7-8.5-5.8-13.6c-3.7-3.5-6-8.3-6.7-13.3c-4.9,5.9-6.4,12.8-4.5,20.7l0,0.1c0.6,3.9,2.7,8,3.8,9.8
	c4.2,6.6,7.1,8.1,18.7,13.4c7,3.2,14.6,3,22,2.8l0.1,3C62,88.8,60.1,88.8,58.2,88.8z M33.6,54.7c0.4,3.2,1.7,6.5,4.6,9
	c4.4,3.8,10.9,5.2,17.7,3.9C64,65.9,71,60.9,74.1,54.4c1.2-2.4,1.6-5.1,2-7.9l0.1-0.8c0.4-2.9,0.7-5.4,0.9-7.6
	c-7.6-8-16.2-15.2-24.4-14.6c-2.5,0.2-4.9,1.1-7.2,2.8c5.5-0.1,10.9,1.2,15,3.8c3.3,2.1,5.5,6.5,6,11.6c0.5,5.2-0.9,9.9-3.8,12.5
	C56.6,60,41.5,59.3,33.6,54.7z M33.4,51c0.1,0.1,0.3,0.2,0.4,0.3c6.2,4.7,21.4,5.9,26.8,0.8c2.1-2,3.2-5.9,2.8-10.1
	c-0.4-4.2-2.2-7.8-4.6-9.4c-4.4-2.9-10.7-3.8-16.8-3.1c-1,1.1-1.9,2.4-2.8,3.8c-3,4.8-5.2,10.7-5.7,15.9
	C33.5,49.7,33.4,50.3,33.4,51z M26.6,36.1c-0.1,4.4,1.4,8.7,4.1,12.1c0.8-6.1,3.3-12.2,6.1-16.5c0.3-0.5,0.6-0.9,0.9-1.3
	C33.4,31.5,29.5,33.4,26.6,36.1z M53.6,20.5c8.2,0,16.3,6.1,23.5,13.4c-0.5-6.6-4-9.7-13.6-13.2c-9.5-3.5-19.1-3.2-28.6,0.7
	C31,23.1,28.8,27,27.7,30c-0.2,0.6-0.4,1.2-0.6,1.8c3.8-2.6,8.6-4.4,13.5-5.1c3.6-3.8,7.5-5.9,11.9-6.2
	C52.8,20.5,53.2,20.5,53.6,20.5z"/>
<path class="st1" d="M60.3,85.9c0-0.1,0-0.2,0-0.3c-0.1-0.5,0-0.9,0.7-0.8c2.3,0,4.6,0,6.9,0c0.6,0,0.8,0.3,0.8,0.8
	c0,1.2,0,2.5,0,3.7c0,0.5-0.1,0.8-0.7,0.8c-2.4,0-4.8,0-7.2,0c-0.4,0-0.6-0.2-0.6-0.6c0,0,0.1-0.1,0.1-0.1
	C60.4,88.3,60.5,87.1,60.3,85.9z"/>
<path class="st1" d="M86.6,43.6c0.1-0.1,0.1-0.1,0.2-0.2c0.4-0.4,0.7-0.5,1.1,0c1.4,1.9,2.8,3.7,4.2,5.5c0.4,0.5,0.3,0.8-0.2,1.1
	c-1,0.7-2,1.5-3,2.3c-0.4,0.3-0.7,0.4-1-0.1c-1.5-1.9-2.9-3.8-4.4-5.7c-0.3-0.3-0.2-0.6,0.1-0.8c0,0,0.1,0,0.1,0
	C84.8,45.1,85.7,44.4,86.6,43.6z"/>
<polygon class="st2" points="26.6,36.1 23.8,39 23.7,34.7 27.1,31.8 "/>
<polygon class="st2" points="33.4,51 33.6,54.7 30.4,52.3 30.7,48.2 "/>
<polygon class="st2" points="80.1,37 79.8,41.1 77,38.1 77.1,33.9 "/>
<polygon class="st2" points="42.1,29.5 37.7,30.4 40.6,26.7 45.5,26.3 "/>
</svg>
