<?xml version="1.0" encoding="utf-8"?>
<!-- Generator: Adobe Illustrator 26.0.3, SVG Export Plug-In . SVG Version: 6.00 Build 0)  -->
<svg version="1.1" id="Layer_1" xmlns="http://www.w3.org/2000/svg" xmlns:xlink="http://www.w3.org/1999/xlink" x="0px" y="0px"
	 viewBox="0 0 100 100" style="enable-background:new 0 0 100 100;" xml:space="preserve">
<style type="text/css">
	.st0{fill:#1E1F1C;}
	.st1{fill:#1D1E1C;stroke:#1E1F1C;stroke-width:4.100832e-03;stroke-miterlimit:10;}
	.st2{fill:#1D1E1C;stroke:#1E1F1C;stroke-width:3.060708e-03;stroke-miterlimit:10;}
	.st3{fill:#1D1E1C;stroke:#1E1F1C;stroke-width:2.574972e-03;stroke-miterlimit:10;}
	.st4{fill:#1D1E1C;stroke:#1E1F1C;stroke-width:1.169941e-03;stroke-miterlimit:10;}
	.st5{fill:#1D1E1C;stroke:#1E1F1C;stroke-width:1.493351e-02;stroke-miterlimit:10;}
	.st6{fill:#1D1E1C;stroke:#1E1F1C;stroke-width:4.093797e-03;stroke-miterlimit:10;}
	.st7{fill:#1D1E1C;stroke:#1E1F1C;stroke-width:4.046350e-03;stroke-miterlimit:10;}
	.st8{fill:#1D1E1C;stroke:#1E1F1C;stroke-width:3.063928e-03;stroke-miterlimit:10;}
	.st9{fill:#1D1E1C;stroke:#1E1F1C;stroke-width:3.011996e-03;stroke-miterlimit:10;}
	.st10{fill:#1D1E1C;stroke:#1E1F1C;stroke-width:2.424638e-03;stroke-miterlimit:10;}
	.st11{fill:#1D1E1C;stroke:#1E1F1C;stroke-width:1.570948e-03;stroke-miterlimit:10;}
	.st12{fill:#1D1E1C;stroke:#1E1F1C;stroke-width:5.770348e-03;stroke-miterlimit:10;}
	.st13{fill:#1D1E1C;stroke:#1E1F1C;stroke-width:3.947931e-03;stroke-miterlimit:10;}
	.st14{fill:#1D1E1C;stroke:#1E1F1C;stroke-width:2.727917e-03;stroke-miterlimit:10;}
	.st15{fill:#1D1E1C;stroke:#1E1F1C;stroke-width:3.488120e-03;stroke-miterlimit:10;}
	.st16{fill:#1D1E1C;stroke:#1E1F1C;stroke-width:1.364555e-03;stroke-miterlimit:10;}
	.st17{fill:#1D1E1C;stroke:#1E1F1C;stroke-width:2.063399e-03;stroke-miterlimit:10;}
	.st18{fill:#1D1E1C;stroke:#1E1F1C;stroke-width:9.492052e-04;stroke-miterlimit:10;}
	.st19{fill:#1D1E1C;stroke:#1E1F1C;stroke-width:1.440222e-03;stroke-miterlimit:10;}
	.st20{fill:#1D1E1C;stroke:#1E1F1C;stroke-width:1.742535e-03;stroke-miterlimit:10;}
	.st21{fill:#1D1E1C;stroke:#1E1F1C;stroke-width:2.892683e-03;stroke-miterlimit:10;}
	.st22{fill:#1D1E1C;stroke:#1E1F1C;stroke-width:1.428999e-03;stroke-miterlimit:10;}
	.st23{fill:#1D1E1C;stroke:#1E1F1C;stroke-width:3.609522e-03;stroke-miterlimit:10;}
	.st24{fill:#1D1E1C;stroke:#1E1F1C;stroke-width:1.344732e-03;stroke-miterlimit:10;}
</style>
<g>
	<g>
		<path class="st0" d="M52,73.6c1.4,2.4,2.8,4.4,4.1,7.2c0.4,0.8,0.9,1.6,0.9,2.5c0,0.2,0,0.4-0.2,0.6c-0.2,0.2-0.5,0.3-0.8,0.3
			c-2.9,0.4-6,0.3-8.9-0.3c-0.5-0.1-1-0.2-1.3-0.6c-0.4-0.4-0.3-0.9-0.3-1.4c0.4-2.2,1.1-3,2.4-4.9c0.6-0.8,1.8-2.8,2-3.8"/>
	</g>
	<g>
		<g>
			<g>
				<path class="st1" d="M72.7,89.1c0,0-0.9-0.9-2.2-2.3c-0.3-0.4-0.9-0.4-1.4-0.5c-0.6-0.1-1.1-0.1-1.8-0.2
					c-1.2-0.2-2.5-0.5-3.8-0.9c-1.3-0.4-2.5-0.9-3.6-1.4c-1.1-0.6-2.1-1.2-3.1-1.4c-1.9-0.5-3.4-0.3-3.5-0.3c-0.7,0-1.2-0.1-1.2-0.2
					c0-0.1,0.5-0.2,1.2-0.2c0.2,0,1.6-0.1,3.6,0.4c1,0.3,2,0.9,3.1,1.5c1.1,0.6,2.3,1.1,3.6,1.5c1.2,0.4,2.5,0.7,3.7,0.9
					c0.6,0.1,1.2,0.2,1.7,0.3c0.5,0,1.1,0.1,1.5,0.5C71.9,88.1,72.7,89.1,72.7,89.1z"/>
			</g>
		</g>
	</g>
	<g>
		<g>
			<g>
				<path class="st2" d="M70.7,79.9c0,0-0.2,0.2-0.5,0.4c-0.3,0.2-0.9,0.6-1.6,0.8c-0.7,0.2-1.6,0.3-2.5,0.3
					c-0.9-0.1-1.9-0.3-2.8,0.1c-0.4,0.2-0.9,0.5-1.3,0.6c-0.5,0.2-1,0.2-1.4,0.3c-0.9,0.1-1.8,0-2.6-0.1C56.5,82,55.5,82,55.3,82
					c-0.5,0-0.9,0-0.9-0.1c0-0.1,0.4-0.2,0.9-0.2c0.1,0,1.2,0.1,2.7,0.3c0.7,0.1,1.6,0.2,2.5,0.2c0.5,0,0.9-0.1,1.4-0.2
					c0.5-0.1,0.9-0.4,1.3-0.6c1-0.4,2-0.1,2.9,0c0.9,0.1,1.8,0,2.5-0.2c0.7-0.2,1.2-0.5,1.6-0.7C70.5,80.1,70.7,79.9,70.7,79.9z"/>
			</g>
		</g>
	</g>
	<g>
		<g>
			<g>
				<path class="st3" d="M42.2,92.9c0,0,0.8-0.2,1.9-0.7c0.6-0.3,1.2-0.6,1.8-1.1c0.6-0.5,1.2-1,1.5-1.8c0.3-0.8,0.2-1.6,0.1-2.4
					c-0.1-0.8-0.1-1.5,0.1-2.2c0.4-1.3,1.1-1.9,1.2-2c0.3-0.3,0.6-0.4,0.7-0.4c0,0.1-0.2,0.3-0.5,0.6c-0.1,0.1-0.8,0.6-1.2,1.8
					c-0.2,0.6-0.2,1.3-0.1,2.1c0.1,0.8,0.2,1.6-0.1,2.4c-0.3,0.8-1,1.4-1.6,1.8c-0.6,0.5-1.3,0.8-1.8,1.1
					C43,92.7,42.2,92.9,42.2,92.9z"/>
			</g>
		</g>
	</g>
	<g>
		<g>
			<g>
				<path class="st4" d="M52.8,90.2c0,0-0.1-0.4-0.5-0.8c-0.4-0.4-1.1-0.7-1.8-0.9c-0.7-0.2-1.4-0.5-1.9-0.8
					c-0.5-0.3-0.8-0.6-0.8-0.7c-0.1-0.1-0.2-0.3-0.2-0.3c0,0,0.1,0.1,0.3,0.2c0,0,0.3,0.3,0.8,0.7c0.5,0.3,1.2,0.6,1.9,0.9
					c0.7,0.2,1.4,0.6,1.8,1C52.7,89.8,52.8,90.2,52.8,90.2z"/>
			</g>
		</g>
	</g>
	<g>
		<g>
			<g>
				<path class="st5" d="M75,9.9c0,0-0.3,0-0.8,0.1c-0.5,0.1-1.3,0.3-2.3,0.6c-1.9,0.7-4.6,2-7.7,3.7c-3.1,1.7-6.8,3.7-9.5,7.3
					c-1.3,1.8-2.3,3.8-3,6c-0.7,2.2-0.9,4.6-1,6.9c-0.1,4.7,0.6,9.5,0.5,14.1c-0.1,4.6-0.4,8.8-0.5,12.5c-0.1,3.7,0.1,6.8,0.4,9
					c0.3,2.2,0.7,3.6,0.7,4c0.2,1.2,0.1,2.4-0.1,3.2c-0.2,0.8-0.6,1.2-0.8,1.2c-0.2-0.1-0.2-0.6-0.3-1.3c0-0.7-0.1-1.7-0.3-2.9
					c0-0.3-0.3-1.6-0.6-4c-0.3-2.3-0.4-5.5-0.2-9.2c0.2-3.7,0.6-8,0.8-12.4c0.2-4.5-0.4-9.3-0.2-14.1c0.1-2.4,0.4-4.8,1.2-7.1
					c0.7-2.3,1.8-4.4,3.2-6.2c1.4-1.8,3.1-3.2,4.7-4.4c1.7-1.1,3.4-2.1,5-2.9c3.2-1.6,5.8-2.9,7.8-3.5c1-0.3,1.8-0.5,2.3-0.6
					C74.8,9.9,75,9.9,75,9.9z"/>
			</g>
		</g>
	</g>
	<g>
		<g>
			<g>
				<path class="st6" d="M36.7,44.3c0,0,0.8,1.1,2.3,2.3c0.8,0.6,1.7,1.2,2.8,1.8c1.1,0.6,2.3,1,3.4,1.7c2.3,1.3,4.1,3.5,4.7,5.5
					c0.7,2,0.5,3.5,0.5,3.6c0,0.7-0.3,1.2-0.4,1.2c-0.1,0-0.1-0.6,0-1.2c0-0.1,0.2-1.6-0.4-3.5c-0.6-1.9-2.2-4.1-4.5-5.4
					c-1.1-0.7-2.3-1.2-3.4-1.8c-1.1-0.6-2-1.2-2.8-1.9C37.4,45.3,36.7,44.3,36.7,44.3z"/>
			</g>
		</g>
	</g>
	<g>
		<g>
			<g>
				<path class="st7" d="M70.2,35.1c0,0-0.3,0.1-0.8,0.3c-0.5,0.2-1.3,0.5-2.2,0.6c-0.9,0.2-2.1,0.3-3.3,0.3c-1.2,0-2.5-0.2-3.8-0.3
					c-1.3-0.1-2.6,0.1-3.7,0.5c-1.1,0.4-2.1,1-3,1.5c-0.8,0.6-1.5,1.1-2,1.5c-0.5,0.4-0.6,0.7-0.7,0.8c-0.3,0.5,0,0.9-0.1,1
					c0,0-0.2,0-0.3-0.2c-0.1-0.2-0.1-0.6,0-1c0-0.1,0.3-0.5,0.8-0.9c0.5-0.4,1.2-0.9,2-1.5c0.9-0.5,1.9-1.1,3.1-1.5
					c1.2-0.4,2.5-0.6,3.8-0.5c1.3,0.1,2.6,0.3,3.8,0.3c1.2,0.1,2.3,0,3.3-0.2C69.1,35.7,70.2,35.1,70.2,35.1z"/>
			</g>
		</g>
	</g>
	<g>
		<g>
			<g>
				<path class="st8" d="M55.6,7.2c0,0-0.7,0.6-1.8,1.6c-0.5,0.5-1.1,1.1-1.6,1.9c-0.5,0.8-0.9,1.7-0.8,2.7c0,1,0.5,1.9,1.1,2.5
					c0.6,0.7,1.5,1,2.1,1.4c0.7,0.4,0.9,1.2,0.9,1.7c0,0.5-0.2,0.8-0.2,0.8c-0.2,0.5-0.4,0.8-0.5,0.8c-0.1,0,0-0.4,0.2-0.9
					c0-0.1,0.1-0.3,0.2-0.8c0.1-0.4-0.1-1.1-0.7-1.5c-0.6-0.4-1.5-0.7-2.1-1.5c-0.7-0.7-1.1-1.7-1.1-2.7c0-1,0.4-2,0.9-2.7
					c0.5-0.8,1.1-1.4,1.6-1.9C54.9,7.8,55.6,7.2,55.6,7.2z"/>
			</g>
		</g>
	</g>
	<g>
		<g>
			<g>
				<path class="st9" d="M49.7,9.4c0,0-0.2,0.2-0.5,0.5c-0.3,0.3-0.7,0.7-1.1,1.3c-0.4,0.6-0.9,1.3-0.9,2.2
					c-0.1,0.9,0.3,1.8,0.8,2.6c1.1,1.6,2.6,2.9,3.6,4c1,1.1,1.5,2.1,1.6,2.2c0.2,0.4,0.3,0.9,0.2,0.9c-0.1,0-0.3-0.3-0.5-0.7
					c0-0.1-0.5-1-1.5-2.1c-1-1.1-2.5-2.4-3.5-4.1c-0.5-0.8-0.9-1.8-0.8-2.7c0.1-0.9,0.5-1.7,1-2.2c0.4-0.6,0.9-1,1.2-1.3
					C49.5,9.6,49.7,9.4,49.7,9.4z"/>
			</g>
		</g>
	</g>
	<g>
		<g>
			<g>
				<path class="st10" d="M63.6,8.6c0,0-0.2,0.1-0.5,0.2c-0.3,0.1-0.7,0.4-1.2,0.7c-0.4,0.4-0.9,0.8-1.2,1.5
					c-0.3,0.7-0.2,1.5-0.6,2.2c-0.3,0.7-0.9,1.3-1.5,1.7c-0.6,0.4-1.2,0.8-1.8,1c-0.6,0.2-1,0.4-1.3,0.6c-0.3,0.2-0.4,0.4-0.4,0.4
					c-0.2,0.3-0.1,0.6-0.2,0.6c0,0-0.3-0.3,0-0.7c0-0.1,0.2-0.3,0.5-0.5c0.3-0.2,0.8-0.4,1.4-0.5c0.6-0.2,1.2-0.5,1.8-0.9
					c0.6-0.4,1.2-0.9,1.5-1.6c0.4-0.7,0.3-1.5,0.6-2.2c0.3-0.7,0.8-1.2,1.3-1.5c0.5-0.3,0.9-0.5,1.2-0.7C63.4,8.7,63.6,8.6,63.6,8.6
					z"/>
			</g>
		</g>
	</g>
	<g>
		<g>
			<g>
				<path class="st11" d="M54.3,7.7c0,0,0,0.5,0.1,1.2c0.1,0.7,0.5,1.7,1.1,2.5c1.2,1.7,3.1,2.6,3,2.8c0.2,0.2,0.2,0.5,0.1,0.5
					c0,0-0.1-0.2-0.3-0.4c0.1-0.2-1.8-1.2-3-2.9c-0.6-0.8-1-1.8-1.1-2.5C54.2,8.2,54.3,7.7,54.3,7.7z"/>
			</g>
		</g>
	</g>
	<g>
		<g>
			<g>
				<path class="st12" d="M29.6,10.4c0,0-0.1,0.1-0.1,0.3c-0.1,0.2-0.1,0.5,0.2,0.9c0.5,0.7,1.5,1.2,2.7,1.8
					c0.6,0.3,1.3,0.6,1.9,1.1c0.6,0.5,1.2,1.2,1.2,2.1c0.1,0.9-0.1,1.8,0.1,2.6c0.2,0.9,0.8,1.6,1.4,2.2c2.7,2.4,5.9,4.5,8.3,5.9
					c1.2,0.7,2.3,1.3,3.1,1.7c0.8,0.4,1.3,0.8,1.4,0.9c0.4,0.3,0.6,0.8,0.6,1.2c0,0.4-0.2,0.6-0.2,0.5c-0.1,0-0.1-0.2-0.2-0.4
					c-0.1-0.2-0.3-0.5-0.6-0.8c-0.1-0.1-0.5-0.4-1.2-0.8c-0.8-0.4-1.8-1-3.1-1.8c-2.5-1.5-5.6-3.6-8.3-6.1c-0.7-0.6-1.3-1.4-1.5-2.4
					c-0.2-0.9,0-1.8-0.1-2.7c-0.1-0.9-0.5-1.6-1.1-2c-0.6-0.5-1.3-0.8-1.9-1.1c-1.2-0.6-2.3-1.2-2.7-1.8c-0.2-0.3-0.2-0.7-0.2-0.9
					C29.5,10.4,29.6,10.4,29.6,10.4z"/>
			</g>
		</g>
	</g>
	<g>
		<g>
			<g>
				<path class="st13" d="M71.8,18.3c0,0,0,0.3-0.3,0.8c-0.2,0.5-0.8,1.1-1.7,1.5c-1.7,0.8-4.2,1.3-6.7,1.6c-2.5,0.3-5,0.6-6.9,1.2
					c-1.9,0.6-3,1.3-3.1,1.4c-0.5,0.3-0.8,0.7-0.9,0.7c-0.1,0,0.1-0.6,0.7-1c0.1-0.1,1.3-0.8,3.2-1.4c1.9-0.6,4.5-0.8,7-1.1
					c2.5-0.3,5-0.7,6.7-1.5c0.8-0.4,1.4-1,1.7-1.5C71.8,18.6,71.8,18.3,71.8,18.3z"/>
			</g>
		</g>
	</g>
	<g>
		<g>
			<g>
				<path class="st14" d="M70.4,15.3c0,0-0.5,0.7-1.5,1.5c-1,0.8-2.5,1.7-4.1,2.4c-1.6,0.7-3.3,1.2-4.5,1.8
					c-1.2,0.6-1.9,1.2-1.9,1.3c-0.3,0.3-0.5,0.5-0.6,0.5c-0.1,0,0.1-0.4,0.4-0.7c0.1-0.1,0.8-0.8,2-1.3c1.2-0.6,2.9-1.1,4.6-1.7
					c1.6-0.6,3.2-1.5,4.2-2.3C69.9,16,70.4,15.3,70.4,15.3z"/>
			</g>
		</g>
	</g>
	<g>
		<g>
			<g>
				<path class="st15" d="M38.7,14.1c0,0-0.1,0.3,0,0.8c0,0.5,0.2,1.2,0.6,1.9c0.4,0.7,1.2,1.4,2.2,1.7c1,0.3,2.1,0.3,3.2,0.6
					c2.2,0.6,4.2,1.7,5.5,2.9c1.4,1.1,2,2.3,2,2.4c0.3,0.5,0.3,1,0.2,1c-0.1,0-0.3-0.4-0.5-0.9c0-0.1-0.6-1.2-1.9-2.3
					c-1.3-1.1-3.2-2.3-5.4-2.9c-1.1-0.3-2.2-0.4-3.2-0.7c-1-0.3-1.8-1.1-2.2-1.8c-0.4-0.7-0.5-1.4-0.6-1.9
					C38.7,14.4,38.7,14.1,38.7,14.1z"/>
			</g>
		</g>
	</g>
	<g>
		<g>
			<g>
				<path class="st16" d="M45.3,12.3c0,0,0,0.4,0,1.1c0,0.6-0.1,1.5-0.5,2.3c-0.3,0.8-0.9,1.5-1.5,1.9c-0.6,0.4-0.9,0.7-0.9,0.7
					c-0.1,0.2-0.2,0.3-0.3,0.3c0,0,0-0.2,0.2-0.4c0-0.1,0.4-0.4,1-0.7c0.6-0.4,1.1-1.1,1.5-1.9c0.3-0.8,0.5-1.7,0.5-2.3
					C45.4,12.8,45.3,12.3,45.3,12.3z"/>
			</g>
		</g>
	</g>
	<g>
		<g>
			<g>
				<path class="st17" d="M44.9,11.1c0,0-0.4,0.5-1.3,1c-0.9,0.5-2.2,0.7-3.5,0.9c-1.3,0.2-2.6,0.5-3.4,1.1
					c-0.8,0.6-1.1,1.2-1.2,1.3c-0.1,0.3-0.2,0.5-0.3,0.5c-0.1,0,0-0.3,0.1-0.6c0-0.1,0.4-0.8,1.2-1.4c0.9-0.6,2.2-0.9,3.5-1.1
					c1.3-0.2,2.6-0.4,3.5-0.8C44.5,11.6,44.9,11.1,44.9,11.1z"/>
			</g>
		</g>
	</g>
	<g>
		<g>
			<g>
				<path class="st18" d="M64.6,13.9c0,0,0.1,1.2,0.2,2.4c0,0.3,0.1,0.6,0.3,0.8c0.2,0.2,0.4,0.4,0.6,0.5c0.4,0.2,0.7,0.3,0.8,0.3
					c0.1,0.1,0.3,0.1,0.2,0.1c0,0-0.1,0-0.3,0c0,0-0.4-0.1-0.8-0.4c-0.2-0.1-0.4-0.3-0.6-0.6c-0.2-0.2-0.2-0.6-0.2-0.9
					C64.6,15.1,64.6,13.9,64.6,13.9z"/>
			</g>
		</g>
	</g>
	<g>
		<g>
			<g>
				<path class="st19" d="M44.3,43c0,0,0.1,0,0.3,0.1c0.2,0.1,0.4,0.2,0.6,0.5c0.5,0.6,0.4,1.5,0.4,2.5c0,0.5-0.2,0.9-0.4,1.3
					c-0.3,0.3-0.5,0.7-0.4,1.1c0.1,0.7,0.3,1.2,0.3,1.2c0.1,0.2,0.1,0.4,0,0.4s-0.1-0.2-0.2-0.4c0-0.1-0.1-0.5-0.3-1.2
					c-0.1-0.4,0.2-0.8,0.4-1.1c0.3-0.3,0.4-0.8,0.5-1.2c0.1-0.9,0.1-1.9-0.3-2.4c-0.2-0.3-0.4-0.5-0.6-0.5C44.4,43,44.3,43,44.3,43z
					"/>
			</g>
		</g>
	</g>
	<g>
		<g>
			<g>
				<path class="st20" d="M46,17.6c0,0,0,0.1,0,0.4c0,0.2,0.2,0.6,0.4,0.9c0.3,0.4,0,0.9-0.2,1.4c-0.2,0.5-0.5,1-0.8,1.4
					c-0.7,0.9-1.7,1.5-2.1,2.3c-0.5,0.7-0.4,1.3-0.4,1.4c0,0.3,0.1,0.5,0,0.5c0,0-0.2-0.2-0.2-0.5c0-0.1,0-0.7,0.4-1.5
					c0.5-0.8,1.4-1.4,2.1-2.2c0.4-0.4,0.6-0.9,0.9-1.4c0.2-0.5,0.5-1,0.2-1.3c-0.2-0.3-0.4-0.7-0.4-0.9C46,17.8,46,17.6,46,17.6z"/>
			</g>
		</g>
	</g>
	<g>
		<g>
			<g>
				<path class="st21" d="M32.5,84.3c0,0,0.8-0.4,2.2-0.7c0.7-0.2,1.5-0.3,2.3-0.6c0.8-0.3,1.6-0.7,2.4-1.2c0.8-0.5,1.6-0.9,2.4-1.2
					c0.8-0.3,1.7-0.4,2.4-0.5c1.5,0,2.4,0.3,2.6,0.3c0.5,0.1,0.8,0.2,0.8,0.3c0,0.1-0.4,0.1-0.9,0c-0.1,0-1.1-0.3-2.5-0.3
					c-0.7,0-1.5,0.1-2.3,0.4c-0.8,0.3-1.6,0.7-2.4,1.2c-0.8,0.4-1.6,0.9-2.5,1.1c-0.8,0.2-1.6,0.4-2.3,0.5
					C33.3,83.9,32.5,84.3,32.5,84.3z"/>
			</g>
		</g>
	</g>
	<g>
		<g>
			<g>
				<path class="st22" d="M34.6,89.2c0,0,0.1,0,0.3-0.2c0.2-0.1,0.3-0.3,0.5-0.7c0.3-0.6,0.2-1.6,0.5-2.5c0.3-0.9,0.8-1.6,1.3-2.2
					c0.5-0.5,0.8-0.9,0.9-0.9c0.2-0.2,0.3-0.3,0.3-0.2c0,0-0.1,0.2-0.2,0.3c0,0-0.4,0.4-0.9,0.9c-0.5,0.5-1,1.3-1.3,2.1
					c-0.3,0.9-0.2,1.8-0.5,2.4c-0.1,0.3-0.3,0.5-0.5,0.7C34.7,89.1,34.6,89.2,34.6,89.2z"/>
			</g>
		</g>
	</g>
	<g>
		<g>
			<g>
				<path class="st23" d="M20.9,13.9c0,0,0.8,0.8,2.2,1.8c1.4,1,3.4,2.1,5.6,2.8c2.2,0.7,4.6,0.7,6.3,1.5c1.7,0.7,2.6,1.7,2.7,1.7
					c0.4,0.4,0.7,0.8,0.6,0.9c-0.1,0.1-0.4-0.2-0.9-0.6c-0.1-0.1-1-1-2.6-1.7c-1.6-0.8-4-0.8-6.2-1.6c-2.2-0.7-4.2-1.9-5.6-2.9
					C21.7,14.7,20.9,13.9,20.9,13.9z"/>
			</g>
		</g>
	</g>
	<g>
		<g>
			<g>
				<path class="st24" d="M31.7,12.1c0,0,0,0.4,0,1.1c0,0.6-0.2,1.5-0.4,2.3c-0.2,0.8-0.5,1.7-0.4,2.3c0.1,0.7,0.3,1,0.4,1.1
					c0.1,0.2,0.2,0.3,0.2,0.3c0,0-0.2-0.1-0.3-0.3c0,0-0.3-0.5-0.4-1.1c-0.1-0.7,0.2-1.5,0.4-2.4c0.3-0.8,0.4-1.7,0.4-2.3
					C31.7,12.5,31.7,12.1,31.7,12.1z"/>
			</g>
		</g>
	</g>
</g>
</svg>
