<?xml version="1.0" encoding="utf-8"?>
<!-- Generator: Adobe Illustrator 26.0.3, SVG Export Plug-In . SVG Version: 6.00 Build 0)  -->
<svg version="1.1" id="Layer_1" xmlns="http://www.w3.org/2000/svg" xmlns:xlink="http://www.w3.org/1999/xlink" x="0px" y="0px"
	 viewBox="0 0 300 75.1" style="enable-background:new 0 0 300 75.1;" xml:space="preserve">
<style type="text/css">
	.st0{fill:#FFFFFF;}
	.st1{fill:none;stroke:#2FB6DF;stroke-width:3.59;stroke-linecap:round;stroke-miterlimit:10;}
	.st2{fill:none;stroke:#D6AACD;stroke-width:3.59;stroke-linecap:round;stroke-miterlimit:10;}
	.st3{fill:none;stroke:#B5B5B6;stroke-width:3.59;stroke-linecap:round;stroke-miterlimit:10;}
	.st4{fill:none;stroke:#EA6A3F;stroke-width:3.59;stroke-linecap:round;stroke-miterlimit:10;}
	.st5{fill:none;stroke:#FBD026;stroke-width:3.59;stroke-linecap:round;stroke-miterlimit:10;}
	.st6{fill:#2FB6DF;}
	.st7{fill:none;stroke:#D15527;stroke-width:3.59;stroke-linecap:round;stroke-miterlimit:10;}
	.st8{fill:none;}
</style>
<g>
	<g id="Layer_1_1_">
		<circle class="st0" cx="37.5" cy="37.5" r="33.8"/>
		<line class="st1" x1="48.3" y1="9.5" x2="56.6" y2="59.2"/>
		<line class="st1" x1="27.7" y1="20.5" x2="56.6" y2="59.2"/>
		<line class="st2" x1="8.6" y1="40" x2="27.7" y2="20.5"/>
		<line class="st3" x1="8.6" y1="40" x2="56.6" y2="59.2"/>
		<line class="st1" x1="56.6" y1="59.2" x2="61.9" y2="44.4"/>
		<line class="st4" x1="27.7" y1="20.5" x2="61.9" y2="44.4"/>
		<line class="st3" x1="8.6" y1="40" x2="61.9" y2="44.4"/>
		<line class="st5" x1="48.3" y1="9.5" x2="61.9" y2="44.4"/>
		<path class="st6" d="M40.5,28.5"/>
		<path class="st7" d="M41.9,29.7"/>
		<path class="st6" d="M28.1,30.2"/>
		<path class="st6" d="M28.1,30.2"/>
		<circle class="st8" cx="37.5" cy="37.5" r="37.5"/>
	</g>
</g>
<g>
	<path class="st0" d="M99.3,46.1c0.1-0.9-0.2-1.7-0.8-2.4l-6.4-6.6c-1.4-1.4-2-3.3-1.9-5.2c0.2-1.9,1.1-3.7,2.6-4.8
		c1.6-1.2,3.5-1.6,5.4-1.2c1.9,0.4,3.5,1.5,4.5,3.2c0.5,0.9,0.2,2-0.7,2.6c-0.9,0.5-2.1,0.2-2.6-0.7c-0.4-0.7-1.1-1.2-1.9-1.4
		c-0.8-0.2-1.6,0-2.3,0.6c-0.7,0.5-1.1,1.2-1.1,2.1c-0.1,0.8,0.2,1.6,0.8,2.2l6.4,6.6c1.4,1.4,2.1,3.4,2,5.4c-0.2,2-1.2,3.8-2.7,5
		c-1.6,1.2-3.6,1.6-5.6,1.3c-2-0.4-3.6-1.6-4.6-3.3c-0.6-0.9-0.2-2.1,0.7-2.6c0.9-0.5,2-0.2,2.6,0.7c0.4,0.8,1.1,1.3,2,1.5
		c0.9,0.2,1.8,0,2.5-0.6C98.9,47.8,99.2,47,99.3,46.1z"/>
	<path class="st0" d="M117.5,52.4c-0.8,0.5-2,0.2-2.4-0.7l-4.2-7.7l-1.2,1.3v5.5c0,1-0.8,1.8-1.8,1.8c-1,0-1.8-0.8-1.8-1.8v-24
		c0-1,0.8-1.8,1.8-1.8c1,0,1.8,0.8,1.8,1.8V40l5.6-6.3c0.7-0.8,1.8-0.8,2.6-0.1c0.8,0.6,0.8,1.8,0.1,2.5l-4.6,5.2l4.8,8.8
		C118.7,50.9,118.5,52,117.5,52.4z"/>
	<path class="st0" d="M120.9,28.8c0-1.2,1-2.2,2.2-2.2s2.2,1,2.2,2.2s-1,2.2-2.2,2.2S120.9,30.1,120.9,28.8z M123.1,52.6
		c-1,0-1.8-0.8-1.8-1.8v-16c0-1,0.8-1.8,1.8-1.8c1,0,1.8,0.8,1.8,1.8v16C124.9,51.8,124.1,52.6,123.1,52.6z"/>
	<path class="st0" d="M128.6,48.1V26.8c0-1,0.8-1.8,1.8-1.8c1,0,1.8,0.8,1.8,1.8v21.2c0,0.5,0.2,0.9,0.7,1.2
		c0.8,0.5,1.2,1.6,0.6,2.5c-0.5,0.8-1.6,1.1-2.4,0.6C129.5,51.5,128.6,49.8,128.6,48.1z"/>
	<path class="st0" d="M136.4,48.1V26.8c0-1,0.8-1.8,1.8-1.8c1,0,1.8,0.8,1.8,1.8v21.2c0,0.5,0.2,0.9,0.7,1.2
		c0.8,0.5,1.2,1.6,0.6,2.5c-0.5,0.8-1.6,1.1-2.4,0.6C137.4,51.5,136.4,49.8,136.4,48.1z"/>
	<path class="st0" d="M155.8,25.7c1.1,0,1.9,0.8,1.9,1.9v23.2c0,1.1-0.8,1.9-1.9,1.9c-1.1,0-1.9-0.8-1.9-1.9V40.8h-5.8v10.1
		c0,1.1-0.8,1.9-1.9,1.9s-1.9-0.8-1.9-1.9V27.6c0-1.1,0.8-1.9,1.9-1.9s1.9,0.8,1.9,1.9v9.3h5.8v-9.3
		C153.9,26.6,154.8,25.7,155.8,25.7z"/>
	<path class="st0" d="M161.2,46.7V34.8c0-1,0.8-1.8,1.8-1.8s1.8,0.8,1.8,1.8v11.8c0,1.2,1,2.2,2.2,2.2h2.2v-14c0-1,0.8-1.8,1.8-1.8
		s1.8,0.8,1.8,1.8v15.8c0,1-0.8,1.8-1.8,1.8h-4C163.8,52.5,161.2,49.9,161.2,46.7z"/>
	<path class="st0" d="M176.6,50.7V26.8c0-1,0.8-1.8,1.8-1.8s1.8,0.8,1.8,1.8v6.4h2.2c3.2,0,5.8,2.6,5.8,5.8v7.7
		c0,3.2-2.6,5.8-5.8,5.8h-4C177.4,52.5,176.6,51.7,176.6,50.7z M180.2,48.9h2.2c1.2,0,2.2-1,2.2-2.2V39c0-1.2-1-2.2-2.2-2.2h-2.2
		V48.9z"/>
</g>
</svg>
